<svg width="50" height="50" viewBox="0 0 50 50" fill="none" xmlns="http://www.w3.org/2000/svg">
<path fill-rule="evenodd" clip-rule="evenodd" d="M25 8.85415C16.0829 8.85415 8.85417 16.0829 8.85417 25C8.85417 33.9171 16.0829 41.1458 25 41.1458C33.9171 41.1458 41.1458 33.9171 41.1458 25C41.1458 16.0829 33.9171 8.85415 25 8.85415ZM3.64583 25C3.64583 13.2064 13.2064 3.64581 25 3.64581C36.7936 3.64581 46.3542 13.2064 46.3542 25C46.3542 36.7936 36.7936 46.3541 25 46.3541C13.2064 46.3541 3.64583 36.7936 3.64583 25Z" fill="black"/>
<path fill-rule="evenodd" clip-rule="evenodd" d="M33.0914 16.9085C33.7072 17.5243 33.9744 18.4071 33.8035 19.2609L32.2641 26.9541C32.264 26.9543 32.2641 26.9539 32.2641 26.9541C32.0021 28.2642 31.3582 29.4682 30.4138 30.4133C29.4692 31.3585 28.266 32.0031 26.9557 32.2658L19.2603 33.8036C18.4065 33.9743 17.5239 33.7069 16.9083 33.0911C16.2927 32.4754 16.0256 31.5927 16.1965 30.739L17.736 23.0452C17.9985 21.7355 18.6427 20.5318 19.5873 19.5873C20.5319 18.6427 21.7347 17.9986 23.0445 17.7362L30.739 16.1964C31.5929 16.0256 32.4757 16.2928 33.0914 16.9085ZM27.9298 22.0702L24.068 22.8429C24.0677 22.843 24.0682 22.8429 24.068 22.8429C23.766 22.9036 23.488 23.0523 23.2702 23.2701C23.0524 23.4879 22.9038 23.7652 22.8431 24.0672L22.07 27.9308L25.9318 27.1591C25.9313 27.1592 25.9322 27.159 25.9318 27.1591C26.2336 27.0983 26.5121 26.9494 26.7298 26.7316C26.9477 26.5135 27.0963 26.2357 27.1567 25.9333L27.9298 22.0702Z" fill="black"/>
</svg>
