<svg width="50" height="50" viewBox="0 0 50 50" fill="none" xmlns="http://www.w3.org/2000/svg">
<path d="M25 41.6667C33.6292 41.6667 40.625 34.6709 40.625 26.0417C40.625 17.4125 33.6292 10.4167 25 10.4167C16.3708 10.4167 9.375 17.4125 9.375 26.0417C9.375 34.6709 16.3708 41.6667 25 41.6667Z" stroke="black" stroke-width="4" stroke-linecap="round" stroke-linejoin="round"/>
<path d="M20.8333 11.4584C22.7135 12.5084 24.4792 14.0625 24.3312 16.0886C24.2125 17.7084 22.8281 18.0698 22.5385 19.2407C22.249 20.4115 23.924 21.6886 21.0906 23.5792C19.199 24.8396 13.5104 27.2344 9.375 25" stroke="black" stroke-width="4" stroke-linecap="round"/>
<path d="M9.89584 25.5208C6.77084 27.4875 2.15417 32.8344 4.16667 36.4583C6.77084 41.1458 16.6667 37.1771 28.125 28.125C39.5833 19.0729 43.9896 5.8396 43.9896 5.8396L38.5417 7.29168" stroke="black" stroke-width="4" stroke-linecap="round" stroke-linejoin="round"/>
<path d="M27.0833 41.6667C27.0833 41.6667 27.6042 36.4584 31.25 33.3334C34.8958 30.2084 39.5833 30.2084 39.5833 30.2084" stroke="black" stroke-width="4" stroke-linecap="round"/>
</svg>
