<svg width="40" height="40" viewBox="0 0 40 40" fill="none" xmlns="http://www.w3.org/2000/svg">
<path d="M10.9 8.33333C11 9.81667 11.25 11.2667 11.65 12.65L9.65 14.65C8.96667 12.65 8.53333 10.5333 8.38333 8.33333H10.9ZM27.3333 28.3667C28.75 28.7667 30.2 29.0167 31.6667 29.1167V31.6C29.4667 31.45 27.35 31.0167 25.3333 30.35L27.3333 28.3667ZM12.5 5H6.66667C5.75 5 5 5.75 5 6.66667C5 22.3167 17.6833 35 33.3333 35C34.25 35 35 34.25 35 33.3333V27.5167C35 26.6 34.25 25.85 33.3333 25.85C31.2667 25.85 29.25 25.5167 27.3833 24.9C27.2179 24.84 27.0426 24.8117 26.8667 24.8167C26.4333 24.8167 26.0167 24.9833 25.6833 25.3L22.0167 28.9667C17.2924 26.5506 13.4493 22.7076 11.0333 17.9833L14.7 14.3167C15.1667 13.85 15.3 13.2 15.1167 12.6167C14.4844 10.6968 14.1637 8.688 14.1667 6.66667C14.1667 5.75 13.4167 5 12.5 5Z" fill="black"/>
</svg>
