<svg width="400" height="400" viewBox="0 0 400 400" fill="none" xmlns="http://www.w3.org/2000/svg">
<path d="M56.831 223.496H84.223V245H28.415V154.376H56.831V223.496ZM179.821 172.808V245H151.405V233.992C149.186 237.405 146.2 240.179 142.445 242.312C138.776 244.445 134.381 245.512 129.261 245.512C120.984 245.512 114.498 242.739 109.805 237.192C105.197 231.645 102.893 224.136 102.893 214.664V172.808H131.181V211.08C131.181 214.493 132.077 217.224 133.869 219.272C135.746 221.235 138.221 222.216 141.293 222.216C144.45 222.216 146.925 221.235 148.717 219.272C150.509 217.224 151.405 214.493 151.405 211.08V172.808H179.821ZM250.255 245L238.095 228.744L229.007 245H197.775L221.967 206.984L196.495 172.808H228.239L240.399 189.192L249.615 172.808H280.847L255.887 209.928L281.999 245H250.255ZM344.203 245L327.179 212.488H327.051V245H298.635V154.376H340.875C348.214 154.376 354.486 155.699 359.691 158.344C364.896 160.904 368.779 164.445 371.339 168.968C373.984 173.405 375.307 178.44 375.307 184.072C375.307 190.131 373.6 195.507 370.187 200.2C366.859 204.893 362.038 208.264 355.723 210.312L375.435 245H344.203ZM327.051 193.544H338.315C341.046 193.544 343.094 192.947 344.459 191.752C345.824 190.472 346.507 188.509 346.507 185.864C346.507 183.475 345.782 181.597 344.331 180.232C342.966 178.867 340.96 178.184 338.315 178.184H327.051V193.544Z" fill="white"/>
</svg>
